<svg version="1.1" xmlns="http://www.w3.org/2000/svg" xmlns:xlink="http://www.w3.org/1999/xlink" width="1560" height="804" preserveAspectRatio="xMinYMin none"><defs/><g><path fill="none" stroke="#ed7777" paint-order="fill stroke markers" d=" M 20 431.6080506858516 L 21 433.073425464221 L 22 434.53660595951675 L 23 435.99748884768786 L 24 437.45597096693143 L 25 438.9119493249774 L 26 440.3653211063614 L 27 441.8159836796854 L 28 443.2638346048649 L 29 444.70877164036284 L 30 446.15069275040975 L 31 447.58949611220885 L 32 449.0250801231265 L 33 450.457343407867 L 34 451.8861848256312 L 35 453.3115034772587 L 36 454.7331987123532 L 37 456.1511701363896 L 38 457.56531761780377 L 39 458.9755412950634 L 40 460.3817415837197 L 41 461.7838191834398 L 42 463.1816750850189 L 43 464.5752105773721 L 44 465.9643272545045 L 45 467.34892702246066 L 46 468.7289121062515 L 47 470.104185056759 L 48 471.4746487576171 L 49 472.84020643207026 L 50 474.20076164980713 L 51 475.5562183337702 L 52 476.90648076694043 L 53 478.2514535990962 L 54 479.5910418535468 L 55 480.92515093383923 L 56 482.2536866304382 L 57 483.57655512737875 L 58 484.89366300889145 L 59 486.2049172659987 L 60 487.51022530308296 L 61 488.80949494442524 L 62 490.10263444071444 L 63 491.38955247552605 L 64 492.6701581717708 L 65 493.9443610981119 L 66 495.212071275351 L 67 496.4731991827821 L 68 497.7276557645132 L 69 498.9753524357552 L 70 500.2162010890771 L 71 501.45011410062824 L 72 502.67700433632547 L 73 503.8967851580065 L 74 505.10937042954794 L 75 506.3146745229478 L 76 507.51261232437236 L 77 508.70309924016624 L 78 509.8860512028266 L 79 511.061384676939 L 80 512.229016665077 L 81 513.3888647136625 L 82 514.540846918789 L 83 515.6848819320046 L 84 516.8208889660568 L 85 517.9487878005978 L 86 519.0684987878484 L 87 520.1799428582235 L 88 521.2830415259147 L 89 522.3777168944333 L 90 523.4638916621111 L 91 524.5414891275585 L 92 525.6104331950814 L 93 526.6706483800547 L 94 527.7220598142525 L 95 528.7645932511351 L 96 529.7981750710925 L 97 530.8227322866421 L 98 531.8381925475836 L 99 532.844484146108 L 100 533.841536021861 L 101 534.829277766961 L 102 535.8076396309716 L 103 536.7765525258266 L 104 537.7359480307085 L 105 538.6857583968808 L 106 539.6259165524718 L 107 540.5563561072108 L 108 541.4770113571163 L 109 542.3878172891363 L 110 543.2887095857385 L 111 544.179624629453 L 112 545.0604995073636 L 113 545.9312720155518 L 114 546.7918806634883 L 115 547.6422646783758 L 116 548.4823640094402 L 117 549.3121193321714 L 118 550.1314720525127 L 119 550.9403643109977 L 120 551.7387389868372 L 121 552.5265397019523 L 122 553.3037108249553 L 123 554.0701974750785 L 124 554.8259455260501 L 125 555.5709016099153 L 126 556.3050131208058 L 127 557.0282282186548 L 128 557.7404958328568 L 129 558.4417656658748 L 130 559.1319881967914 L 131 559.8111146848071 L 132 560.4790971726804 L 133 561.1358884901158 L 134 561.7814422570939 L 135 562.4157128871473 L 136 563.038655590579 L 137 563.6502263776256 L 138 564.2503820615641 L 139 564.8390802617607 L 140 565.4162794066644 L 141 565.981938736742 L 142 566.5360183073567 L 143 567.0784789915889 L 144 567.6092824829989 L 145 568.1283912983321 L 146 568.6357687801659 L 147 569.1313790994986 L 148 569.6151872582789 L 149 570.0871590918777 L 150 570.5472612715007 L 151 570.995461306542 L 152 571.431727546878 L 153 571.8560291851032 L 154 572.2683362587047 L 155 572.6686196521791 L 156 573.0568510990876 L 157 573.4330031840525 L 158 573.7970493446933 L 159 574.1489638735022 L 160 574.4887219196594 L 161 574.8162994907884 L 162 575.1316734546494 L 163 575.4348215407739 L 164 575.7257223420364 L 165 576.0043553161668 L 166 576.2707007872002 L 167 576.5247399468675 L 168 576.7664548559223 L 169 576.9958284454086 L 170 577.212844517866 L 171 577.4174877484728 L 172 577.6097436861293 L 173 577.7895987544773 L 174 577.9570402528594 L 175 578.1120563572158 L 176 578.2546361209188 L 177 578.3847694755464 L 178 578.502447231593 L 179 578.6076610791184 L 180 578.7004035883346 L 181 578.7806682101303 L 182 578.8484492765338 L 183 578.9037420011127 L 184 578.9465424793123 L 185 578.9768476887313 L 186 578.9946554893348 L 187 578.9999646236062 L 188 578.9927747166352 L 189 578.9730862761448 L 190 578.9409006924552 L 191 578.8962202383857 L 192 578.8390480690942 L 193 578.7693882218545 L 194 578.6872456157708 L 195 578.592626051431 L 196 578.4855362104965 L 197 578.3659836552306 L 198 578.2339768279643 L 199 578.0895250505007 L 200 577.932638523456 L 201 577.7633283255396 L 202 577.5816064127719 L 203 577.3874856176391 L 204 577.1809796481884 L 205 576.962103087059 L 206 576.7308713904528 L 207 576.4873008870424 L 208 576.2314087768186 L 209 575.963213129876 L 210 575.6827328851358 L 211 575.3899878490097 L 212 575.0849986940007 L 213 574.767786957243 L 214 574.4383750389818 L 215 574.0967862009908 L 216 573.7430445649302 L 217 573.3771751106428 L 218 572.9992036743904 L 219 572.6091569470287 L 220 572.2070624721234 L 221 571.7929486440048 L 222 571.3668447057621 L 223 570.9287807471796 L 224 570.4787877026107 L 225 570.016897348794 L 226 569.5431423026096 L 227 569.057556018775 L 228 568.5601727874837 L 229 568.0510277319827 L 230 567.5301568060931 L 231 566.9975967916708 L 232 566.4533852960092 L 233 565.8975607491832 L 234 565.3301624013359 L 235 564.7512303199065 L 236 564.1608053868017 L 237 563.5589292955074 L 238 562.9456445481457 L 239 562.3209944524729 L 240 561.6850231188217 L 241 561.037775456986 L 242 560.3792971730495 L 243 559.7096347661585 L 244 559.0288355252378 L 245 558.3369475256519 L 246 557.6340196258095 L 247 556.9201014637141 L 248 556.1952434534577 L 249 555.4594967816618 L 250 554.712913403862 L 251 553.9555460408399 L 252 553.1874481748991 L 253 552.4086740460897 L 254 551.6192786483772 L 255 550.8193177257593 L 256 550.0088477683297 L 257 549.1879260082885 L 258 548.3566104159013 L 259 547.514959695405 L 260 546.6630332808627 L 261 545.8008913319667 L 262 544.92859472979 L 263 544.0462050724874 L 264 543.1537846709454 L 265 542.2513965443823 L 266 541.3391044158977 L 267 540.4169727079734 L 268 539.4850665379229 L 269 538.5434517132944 L 270 537.5921947272227 L 271 536.6313627537343 L 272 535.6610236430035 L 273 534.6812459165612 L 274 533.6920987624566 L 275 532.6936520303705 L 276 531.6859762266836 L 277 530.6691425094973 L 278 529.6432226836089 L 279 528.6082891954409 L 280 527.564415127925 L 281 526.5116741953417 L 282 525.4501407381144 L 283 524.3798897175603 L 284 523.3009967105965 L 285 522.2135379044029 L 286 521.1175900910428 L 287 520.0132306620396 L 288 518.9005376029123 L 289 517.7795894876674 L 290 516.6504654732516 L 291 515.5132452939611 L 292 514.3680092558114 L 293 513.2148382308668 L 294 512.0538136515287 L 295 510.8850175047859 L 296 509.70853232642446 L 297 508.5244411952 L 298 507.3328277269702 L 299 506.13377606879095 L 300 504.9273708929735 L 301 503.7136973911058 L 302 502.4928412680365 L 303 501.26488873582247 L 304 500.0299265076411 L 305 498.78804179166707 L 306 497.53932228491396 L 307 496.28385616704117 L 308 495.0217320941274 L 309 493.75303919240986 L 310 492.4778670519907 L 311 491.19630572051034 L 312 489.90844569678876 L 313 488.61437792443485 L 314 487.3141937854243 L 315 486.0079850936464 L 316 484.69584408842087 L 317 483.3778634279839 L 318 482.0541361829453 L 319 480.72475582971595 L 320 479.389816243907 L 321 478.0494116937009 L 322 476.70363683319425 L 323 475.35258669571385 L 324 473.99635668710584 L 325 472.6350425789985 L 326 471.2687405020391 L 327 469.8975469391058 L 328 468.52155871849413 L 329 467.14087300707956 L 330 465.7555873034559 L 331 464.36579943105033 L 332 462.97160753121534 L 333 461.5731100562987 L 334 460.17040576269073 L 335 458.7635937038509 L 336 457.35277322331297 L 337 455.93804394766954 L 338 454.519505779537 L 339 453.09725889050065 L 340 451.67140371404116 L 341 450.2420409384423 L 342 448.80927149968056 L 343 447.37319657429776 L 344 445.93391757225606 L 345 444.4915361297769 L 346 443.0461541021639 L 347 441.5978735566102 L 348 440.1467967649909 L 349 438.69302619664086 L 350 437.23666451111905 L 351 435.77781455095896 L 352 434.31657933440596 L 353 432.85306204814316 L 354 431.3873660400043 L 355 429.9195948116758 L 356 428.4498520113882 L 357 426.97824142659647 L 358 425.50486697665144 L 359 424.0298327054608 L 360 422.55324277414263 L 361 421.0752014536694 L 362 419.5958131175051 L 363 418.1151822342345 L 364 416.6334133601863 L 365 415.15061113204956 L 366 413.6668802594849 L 367 412.18232551773 L 368 410.69705174020095 L 369 409.2111638110893 L 370 407.7247666579556 L 371 406.2379652443199 L 372 404.75086456224943 L 373 403.2635696249446 L 374 401.77618545932324 L 375 400.28881709860434 L 376 398.8015695748907 L 377 397.31454791175213 L 378 395.827857116809 L 379 394.3416021743172 L 380 392.8558880377541 L 381 391.3708196224079 L 382 389.8865017979683 L 383 388.40303938112123 L 384 386.92053712814715 L 385 385.43909972752346 L 386 383.9588317925319 L 387 382.4798378538711 L 388 381.0022223522752 L 389 379.5260896311386 L 390 378.05154392914716 L 391 376.57868937291823 L 392 375.1076299696467 L 393 373.63846959976104 L 394 372.1713120095873 L 395 370.70626080402326 L 396 369.24341943922207 L 397 367.7828912152865 L 398 366.3247792689745 L 399 364.86918656641603 L 400 363.4162158958419 L 401 361.9659698603253 L 402 360.51855087053656 L 403 359.074061137511 L 404 357.6326026654315 L 405 356.1942772444251 L 406 354.7591864433751 L 407 353.32743160274873 L 408 351.8991138274408 L 409 350.47433397963397 L 410 349.0531926716766 L 411 347.63579025897747 L 412 346.2222268329195 L 413 344.81260221379125 L 414 343.4070159437384 L 415 342.00556727973407 L 416 340.60835518657024 L 417 339.2154783298687 L 418 337.8270350691139 L 419 336.44312345070733 L 420 335.0638412010436 L 421 333.6892857196095 L 422 332.3195540721061 L 423 330.9547429835943 L 424 329.5949488316644 L 425 328.24026763963053 L 426 326.8907950697495 L 427 325.5466264164659 L 428 324.2078565996825 L 429 322.87458015805737 L 430 321.54689124232834 L 431 320.22488360866373 L 432 318.9086506120425 L 433 317.59828519966106 L 434 316.29387990437044 L 435 314.99552683814136 L 436 313.7033176855602 L 437 312.4173436973541 L 438 311.1376956839475 L 439 309.8644640090494 L 440 308.5977385832723 L 441 307.3376088577828 L 442 306.0841638179853 L 443 304.83749197723773 L 444 303.5976813706015 L 445 302.3648195486247 L 446 301.1389935711595 L 447 299.9202900012145 L 448 298.70879489884175 L 449 297.50459381505976 L 450 296.3077717858122 L 451 295.1184133259628 L 452 293.9366024233275 L 453 292.7624225327434 L 454 291.5959565701754 L 455 290.4372869068616 L 456 289.2864953634955 L 457 288.1436632044491 L 458 287.00887113203413 L 459 285.88219928080264 L 460 284.763727211889 L 461 283.65353390739085 L 462 282.55169776479227 L 463 281.45829659142737 L 464 280.37340759898603 L 465 279.2971073980612 L 466 278.2294719927393 L 467 277.170576775233 L 468 276.1204965205571 L 469 275.0793053812485 L 470 274.0470768821299 L 471 273.0238839151173 L 472 272.0097987340733 L 473 271.0048929497042 L 474 270.00923752450353 L 475 269.0229027677408 L 476 268.0459583304967 L 477 267.0784732007444 L 478 266.12051569847796 L 479 265.1721534708879 L 480 264.23345348758426 L 481 263.30448203586724 L 482 262.38530471604656 L 483 261.47598643680874 L 484 260.5765914106337 L 485 259.68718314926036 L 486 258.8078244592014 L 487 257.9385774373085 L 488 257.0795034663869 L 489 256.23066321086117 L 490 255.39211661249115 L 491 254.56392288613893 L 492 253.74614051558774 L 493 252.9388272494117 L 494 252.1420400968979 L 495 251.35583532402077 L 496 250.58026844946872 L 497 249.81539424072363 L 498 249.06126671019328 L 499 248.31793911139746 L 500 247.58546393520717 L 501 246.863892906138 L 502 246.15327697869768 L 503 245.45366633378762 L 504 244.76511037515954 L 505 244.08765772592665 L 506 243.42135622513024 L 507 242.76625292436123 L 508 242.1223940844378 L 509 241.48982517213844 L 510 240.86859085699146 L 511 240.25873500812048 L 512 239.66030069114652 L 513 239.07333016514704 L 514 238.49786487967168 L 515 237.93394547181512 L 516 237.38161176334773 L 517 236.8409027579033 L 518 236.3118566382248 L 519 235.79451076346814 L 520 235.2889016665639 L 521 234.79506505163752 L 522 234.31303579148837 L 523 233.8428479251265 L 524 233.38453465536952 L 525 232.93812834649768 L 526 232.50366052196847 L 527 232.08116186219064 L 528 231.67066220235756 L 529 231.27219053034042 L 530 230.8857749846413 L 531 230.51144285240593 L 532 230.14922056749705 L 533 229.79913370862752 L 534 229.4612069975542 L 535 229.13546429733216 L 536 228.82192861062947 L 537 228.520622078103 L 538 228.23156597683487 L 539 227.95478071882988 L 540 227.69028584957417 L 541 227.43810004665497 L 542 227.19824111844164 L 543 226.9707260028282 L 544 226.75557076603712 L 545 226.5527906014849 L 546 226.36239982870907 L 547 226.18441189235708 L 548 226.01883936123684 L 549 225.8656939274292 L 550 225.72498640546226 L 551 225.59672673154773 L 552 225.48092396287927 L 553 225.37758627699287 L 554 225.28672097118937 L 555 225.20833446201925 L 556 225.14243228482948 L 557 225.0890190933725 L 558 225.0480986594779 L 559 225.0196738727856 L 560 225.00374674054234 L 561 225.00031838745952 L 562 225.00938905563393 L 563 225.03095810453067 L 564 225.06502401102838 L 565 225.1115843695267 L 566 225.17063589211628 L 567 225.2421744088109 L 568 225.3261948678419 L 569 225.422691336015 L 570 225.5316569991292 L 571 225.65308416245796 L 572 225.78696425129272 L 573 225.93328781154824 L 574 226.0920445104302 L 575 226.26322313716514 L 576 226.44681160379173 L 577 226.6427969460146 L 578 226.85116532411993 L 579 227.07190202395245 L 580 227.30499145795469 L 581 227.5504171662678 L 582 227.80816181789362 L 583 228.07820721191874 L 584 228.3605342787997 L 585 228.65512308170963 L 586 228.9619528179461 L 587 229.2810018204001 L 588 229.61224755908606 L 589 229.95566664273298 L 590 230.31123482043606 L 591 230.67892698336928 L 592 231.05871716655844 L 593 231.4505785507148 L 594 231.8544834641289 L 595 232.2704033846245 L 596 232.69830894157295 L 597 233.13816991796708 L 598 233.58995525255497 L 599 234.05363304203348 L 600 234.52917054330106 L 601 235.01653417577 L 602 235.5156895237377 L 603 236.026601338817 L 604 236.5492335424252 L 605 237.0835492283321 L 606 237.6295106652656 L 607 238.18707929957682 L 608 238.756215757962 L 609 239.33687985024326 L 610 239.9290305722066 L 611 240.53262610849728 L 612 241.1476238355729 L 613 241.77398032471316 L 614 242.41165134508668 L 615 243.06059186687443 L 616 243.72075606444943 L 617 244.39209731961293 L 618 245.07456822488635 L 619 245.76812058685894 L 620 246.47270542959112 L 621 247.18827299807288 L 622 247.91477276173734 L 623 248.65215341802906 L 624 249.40036289602665 L 625 250.15934836012 L 626 250.92905621374118 L 627 251.70943210314942 L 628 252.50042092126913 L 629 253.30196681158145 L 630 254.1140131720686 L 631 254.936502659211 L 632 255.76937719203642 L 633 256.61257795622157 L 634 257.4660454082454 L 635 258.32971927959375 L 636 259.2035385810151 L 637 260.08744160682784 L 638 260.9813659392771 L 639 261.8852484529432 L 640 262.79902531919845 L 641 263.72263201071496 L 642 264.6560033060214 L 643 265.5990732941085 L 644 266.55177537908344 L 645 267.5140422848725 L 646 268.4858060599721 L 647 269.4669980822471 L 648 270.45754906377647 L 649 271.4573890557465 L 650 272.46644745338983 L 651 273.4846530009719 L 652 274.5119337968221 L 653 275.5482172984117 L 654 276.5934303274762 L 655 277.6474990751829 L 656 278.7103491073433 L 657 279.78190536966906 L 658 280.862092193072 L 659 281.95083329900774 L 660 283.0480518048622 L 661 284.15367022938057 L 662 285.2676104981388 L 663 286.38979394905704 L 664 287.52014133795427 L 665 288.65857284414426 L 666 289.80500807607234 L 667 290.95936607699207 L 668 292.12156533068224 L 669 293.29152376720333 L 670 294.4691587686929 L 671 295.65438717519936 L 672 296.84712529055497 L 673 298.04728888828595 L 674 299.25479321756 L 675 300.46955300917136 L 676 301.69148248156205 L 677 302.92049534687925 L 678 304.15650481706905 L 679 305.39942361000476 L 680 306.64916395565035 L 681 307.9056376022587 L 682 309.16875582260354 L 683 310.4384294202447 L 684 311.71456873582724 L 685 312.99708365341263 L 686 314.2858836068424 L 687 315.58087758613345 L 688 316.88197414390515 L 689 318.18908140183663 L 690 319.50210705715506 L 691 320.82095838915365 L 692 322.1455422657393 L 693 323.4757651500091 L 694 324.8115331068556 L 695 326.1527518096002 L 696 327.49932654665406 L 697 328.8511622282061 L 698 330.2081633929382 L 699 331.57023421476623 L 700 332.9372785096067 L 701 334.3091997421688 L 702 335.6859010327718 L 703 337.06728516418616 L 704 338.4532545884984 L 705 339.8437114339997 L 706 341.23855751209726 L 707 342.63769432424783 L 708 344.0410230689136 L 709 345.4484446485387 L 710 346.85985967654767 L 711 348.2751684843632 L 712 349.6942711284446 L 713 351.11706739734547 L 714 352.5434568187901 L 715 353.97333866676854 L 716 355.40661196864926 L 717 356.8431755123098 L 718 358.28292785328364 L 719 359.72576732192397 L 720 361.17159203058316 L 721 362.6202998808077 L 722 364.0717885705479 L 723 365.52595560138224 L 724 366.98269828575513 L 725 368.4419137542286 L 726 369.90349896274637 L 727 371.36735069991033 L 728 372.8333655942692 L 729 374.301440121618 L 730 375.7714706123083 L 731 377.2433532585696 L 732 378.7169841218393 L 733 380.19225914010264 L 734 381.66907413524103 L 735 383.1473248203889 L 736 384.62690680729776 L 737 386.10771561370785 L 738 387.5896466707263 L 739 389.0725953302113 L 740 390.55645687216196 L 741 392.0411265121132 L 742 393.52649940853524 L 743 395.01247067023706 L 744 396.49893536377357 L 745 397.9857885208553 L 746 399.47292514576105 L 747 400.9602402227524 L 748 402.4476287234891 L 749 403.93498561444625 L 750 405.4222058643308 L 751 406.90918445149913 L 752 408.3958163713725 L 753 409.88199664385286 L 754 411.36762032073534 L 755 412.8525824931199 L 756 414.3367782988193 L 757 415.820102929764 L 758 417.3024516394035 L 759 418.7837197501032 L 760 420.26380266053565 L 761 421.7425958530679 L 762 423.2199949011419 L 763 424.6958954766484 L 764 426.17019335729447 L 765 427.64278443396324 L 766 429.1135647180655 L 767 430.5824303488832 L 768 432.04927760090345 L 769 433.51400289114343 L 770 434.97650278646495 L 771 436.43667401087833 L 772 437.8944134528356 L 773 439.34961817251155 L 774 440.8021854090732 L 775 442.2520125879363 L 776 443.6989973280085 L 777 445.1430374489195 L 778 446.5840309782362 L 779 448.02187615866416 L 780 449.4564714552326 L 781 450.88771556246496 L 782 452.3155074115324 L 783 453.73974617739105 L 784 455.1603312859017 L 785 456.57716242093204 L 786 457.9901395314408 L 787 459.39916283854257 L 788 460.80413284255394 L 789 462.2049503300202 L 790 463.60151638072034 L 791 464.9937323746537 L 792 466.38149999900327 L 793 467.7647212550784 L 794 469.14329846523526 L 795 470.51713427977404 L 796 471.8861316838137 L 797 473.25019400414277 L 798 474.609224916046 L 799 475.9631284501064 L 800 477.3118089989821 L 801 478.65517132415806 L 802 479.9931205626712 L 803 481.32556223380936 L 804 482.65240224578315 L 805 483.9735469023702 L 806 485.2889029095318 L 807 486.598377382001 L 808 487.9018778498415 L 809 489.1993122649779 L 810 490.49058900769535 L 811 491.7756168931098 L 812 493.0543051776069 L 813 494.3265635652499 L 814 495.5923022141561 L 815 496.8514317428411 L 816 498.10386323653063 L 817 499.3495082534392 L 818 500.58827883101566 L 819 501.8200874921549 L 820 503.0448472513747 L 821 504.2624716209585 L 822 505.47287461706316 L 823 506.6759707657905 L 824 507.871675109223 L 825 509.0599032114235 L 826 510.24057116439747 L 827 511.4135955940184 L 828 512.5788936659154 L 829 513.7363830913226 L 830 514.8859821328898 L 831 516.027609610455 L 832 517.1611849067764 L 833 518.2866279732257 L 834 519.4038593354406 L 835 520.5128000989373 L 836 521.6133719546813 L 837 522.7054971846171 L 838 523.7890986671574 L 839 524.8640998826279 L 840 525.9304249186714 L 841 526.9879984756084 L 842 528.0367458717546 L 843 529.0765930486942 L 844 530.10746657651 L 845 531.1292936589687 L 846 532.142002138661 L 847 533.145520502098 L 848 534.1397778847603 L 849 535.1247040761025 L 850 536.1002295245114 L 851 537.0662853422174 L 852 538.0228033101586 L 853 538.9697158827987 L 854 539.9069561928967 L 855 540.8344580562289 L 856 541.7521559762619 L 857 542.6599851487787 L 858 543.5578814664541 L 859 544.4457815233824 L 860 545.323622619554 L 861 546.191342765284 L 862 547.048880685589 L 863 547.8961758245143 L 864 548.7331683494103 L 865 549.5597991551572 L 866 550.3760098683392 L 867 551.1817428513665 L 868 551.9769412065453 L 869 552.7615487800958 L 870 553.5355101661175 L 871 554.298770710502 L 872 555.0512765147919 L 873 555.7929744399873 L 874 556.5238121102986 L 875 557.2437379168443 L 876 557.9527010212959 L 877 558.6506513594677 L 878 559.3375396448523 L 879 560.0133173721011 L 880 560.6779368204493 L 881 561.3313510570857 L 882 561.9735139404675 L 883 562.6043801235775 L 884 563.2239050571278 L 885 563.8320449927046 L 886 564.4287569858577 L 887 565.0139988991334 L 888 565.5877294050503 L 889 566.1499079890164 L 890 566.7004949521919 L 891 567.2394514142911 L 892 567.766739316329 L 893 568.2823214233078 L 894 568.7861613268474 L 895 569.2782234477556 L 896 569.7584730385414 L 897 570.2268761858675 L 898 570.6833998129462 L 899 571.1280116818749 L 900 571.5606803959123 L 901 571.9813754016958 L 902 572.390066991399 L 903 572.7867263048295 L 904 573.1713253314668 L 905 573.5438369124406 L 906 573.9042347424485 L 907 574.2524933716132 L 908 574.5885882072805 L 909 574.9124955157549 L 910 575.2241924239768 L 911 575.5236569211362 L 912 575.8108678602287 L 913 576.0858049595473 L 914 576.3484488041157 L 915 576.5987808470587 L 916 576.8367834109122 L 917 577.0624396888713 L 918 577.2757337459774 L 919 577.4766505202431 L 920 577.6651758237163 L 921 577.8412963434814 L 922 578.0049996426004 L 923 578.15627416099 L 924 578.2951092162391 L 925 578.4214950043619 L 926 578.5354226004913 L 927 578.6368839595087 L 928 578.725871916612 L 929 578.8023801878217 L 930 578.8664033704247 L 931 578.9179369433556 L 932 578.9569772675162 L 933 578.9835215860325 L 934 578.997568024449 L 935 578.9991155908616 L 936 578.9881641759871 L 937 578.9647145531715 L 938 578.9287683783348 L 939 578.8803281898546 L 940 578.8193974083863 L 941 578.7459803366221 L 942 578.6600821589868 L 943 578.5617089412717 L 944 578.4508676302066 L 945 578.327566052969 L 946 578.191812916631 L 947 578.0436178075452 L 948 577.8829911906671 L 949 577.7099444088168 L 950 577.5244896818772 L 951 577.3266401059315 L 952 577.1164096523386 L 953 576.8938131667461 L 954 576.6588663680423 L 955 576.4115858472458 L 956 576.1519890663342 L 957 575.8800943570111 L 958 575.5959209194114 L 959 575.2994888207453 L 960 574.9908189938816 L 961 574.6699332358693 L 962 574.3368542063982 L 963 573.9916054261994 L 964 573.6342112753834 L 965 573.2646969917195 L 966 572.8830886688527 L 967 572.4894132544616 L 968 572.0836985483556 L 969 571.6659732005112 L 970 571.2362667090491 L 971 570.7946094181516 L 972 570.3410325159191 L 973 569.8755680321684 L 974 569.3982488361703 L 975 568.9091086343286 L 976 568.4081819678006 L 977 567.8955042100567 L 978 567.3711115643836 L 979 566.835041061327 L 980 566.2873305560773 L 981 565.7280187257959 L 982 565.1571450668837 L 983 564.5747498921933 L 984 563.9808743281809 L 985 563.3755603120026 L 986 562.7588505885532 L 987 562.1307887074474 L 988 561.4914190199447 L 989 560.8407866758173 L 990 560.1789376201621 L 991 559.5059185901557 L 992 558.8217771117547 L 993 558.1265614963391 L 994 557.420320837301 L 995 556.7031050065774 L 996 555.9749646511292 L 997 555.235951189364 L 998 554.4861168075053 L 999 553.7255144559076 L 1000 552.9541978453171 L 1001 552.1722214430787 L 1002 551.3796404692898 L 1003 550.5765108929012 L 1004 549.7628894277641 L 1005 548.938833528626 L 1006 548.104401387073 L 1007 547.2596519274204 L 1008 546.4046448025522 L 1009 545.539440389708 L 1010 544.6640997862203 L 1011 543.7786848051992 L 1012 542.8832579711675 L 1013 541.9778825156461 L 1014 541.0626223726882 L 1015 540.1375421743646 L 1016 539.2027072462002 L 1017 538.2581836025602 L 1018 537.3040379419888 L 1019 536.3403376424992 L 1020 535.3671507568158 L 1021 534.3845460075684 L 1022 533.3925927824388 L 1023 532.391361129262 L 1024 531.3809217510787 L 1025 530.3613460011433 L 1026 529.3327058778842 L 1027 528.295074019821 L 1028 527.2485237004333 L 1029 526.1931288229883 L 1030 525.1289639153206 L 1031 524.0561041245699 L 1032 522.9746252118741 L 1033 521.8846035470201 L 1034 520.7861161030501 L 1035 519.6792404508261 L 1036 518.5640547535528 L 1037 517.4406377612572 L 1038 516.3090688052282 L 1039 515.1694277924142 L 1040 514.0217951997807 L 1041 512.866252068627 L 1042 511.702879998863 L 1043 510.5317611432487 L 1044 509.3529782015904 L 1045 508.16661441490277 L 1046 506.97275355952945 L 1047 505.77147994122794 L 1048 504.5628783892156 L 1049 503.34703425017995 L 1050 502.12403338225124 L 1051 500.8939621489399 L 1052 499.6569074130378 L 1053 498.41295653048417 L 1054 497.16219734419707 L 1055 495.9047181778701 L 1056 494.6406078297356 L 1057 493.36995556629364 L 1058 492.09285111600883 L 1059 490.8093846629737 L 1060 489.5196468405404 L 1061 488.22372872492065 L 1062 486.9217218287539 L 1063 485.61371809464566 L 1064 484.29980988867425 L 1065 482.9800899938688 L 1066 481.6546516036568 L 1067 480.3235883152837 L 1068 478.98699412320286 L 1069 477.64496341243847 L 1070 476.29759095192014 L 1071 474.9449718877909 L 1072 473.5872017366884 L 1073 472.22437637899964 L 1074 470.8565920520905 L 1075 469.4839453435097 L 1076 468.1065331841682 L 1077 466.72445284149455 L 1078 465.33780191256585 L 1079 463.946678317216 L 1080 462.5511802911212 L 1081 461.1514063788626 L 1082 459.7474554269675 L 1083 458.33942657692967 L 1084 456.9274192582076 L 1085 455.5115331812038 L 1086 454.0918683302234 L 1087 452.66852495641376 L 1088 451.24160357068496 L 1089 449.81120493661217 L 1090 448.3774300633202 L 1091 446.9403801983506 L 1092 445.5001568205121 L 1093 444.0568616327141 L 1094 442.6105965547854 L 1095 441.16146371627667 L 1096 439.70956544924854 L 1097 438.2550042810454 L 1098 436.79788292705507 L 1099 435.33830428345584 L 1100 433.87637141995 L 1101 432.4121875724852 L 1102 430.94585613596587 L 1103 429.4774806569497 L 1104 428.0071648263368 L 1105 426.53501247204747 L 1106 425.06112755169 L 1107 423.5856141452197 L 1108 422.1085764475891 L 1109 420.6301187613903 L 1110 419.15034548948927 L 1111 417.6693611276536 L 1112 416.1872702571731 L 1113 414.7041775374752 L 1114 413.2201876987335 L 1115 411.7354055344731 L 1116 410.2499358941697 L 1117 408.763883675846 L 1118 407.277353818664 L 1119 405.79045129551463 L 1120 404.3032811056052 L 1121 402.81594826704446 L 1122 401.32855780942674 L 1123 399.8412147664153 L 1124 398.3540241683251 L 1125 396.86709103470605 L 1126 395.380520366927 L 1127 393.89441714076077 L 1128 392.40888629897137 L 1129 390.9240327439033 L 1130 389.43996133007363 L 1131 387.95677685676776 L 1132 386.4745840606389 L 1133 384.99348760831185 L 1134 383.51359208899186 L 1135 382.0350020070792 L 1136 380.55782177478903 L 1137 379.0821557047787 L 1138 377.60810800278125 L 1139 376.135782760247 L 1140 374.665283946993 L 1141 373.1967154038609 L 1142 371.7301808353844 L 1143 370.26578380246576 L 1144 368.80362771506316 L 1145 367.3438158248877 L 1146 365.88645121811277 L 1147 364.431636808094 L 1148 362.97947532810235 L 1149 361.53006932406925 L 1150 360.08352114734504 L 1151 358.6399329474719 L 1152 357.19940666496984 L 1153 355.76204402413833 L 1154 354.327946525873 L 1155 352.897215440498 L 1156 351.46995180061435 L 1157 350.04625639396613 L 1158 348.62622975632246 L 1159 347.20997216437866 L 1160 345.7975836286747 L 1161 344.38916388653297 L 1162 342.9848123950158 L 1163 341.58462832390103 L 1164 340.18871054868 L 1165 338.7971576435748 L 1166 337.41006787457775 L 1167 336.0275391925119 L 1168 334.64966922611444 L 1169 333.2765552751423 L 1170 331.90829430350135 L 1171 330.544982932399 L 1172 329.18671743352166 L 1173 327.8335937222357 L 1174 326.485707350815 L 1175 325.14315350169284 L 1176 323.8060269807411 L 1177 322.47442221057463 L 1178 321.1484332238843 L 1179 319.8281536567964 L 1180 318.5136767422604 L 1181 317.2050953034652 L 1182 315.9025017472846 L 1183 314.60598805775146 L 1184 313.31564578956255 L 1185 312.0315660616131 L 1186 310.75383955056225 L 1187 309.4825564844301 L 1188 308.217806636226 L 1189 306.9596793176091 L 1190 305.70826337258154 L 1191 304.4636471712148 L 1192 303.225918603409 L 1193 301.9951650726869 L 1194 300.7714734900214 L 1195 299.55493026769847 L 1196 298.34562131321496 L 1197 297.14363202321226 L 1198 295.9490472774458 L 1199 294.7619514327912 L 1200 293.5824283172874 L 1201 292.41056122421696 L 1202 291.2464329062242 L 1203 290.09012556947175 L 1204 288.94172086783504 L 1205 287.8012998971368 L 1206 286.66894318941985 L 1207 285.54473070726067 L 1208 284.4287418381224 L 1209 283.32105538874896 L 1210 282.2217495796003 L 1211 281.1309020393283 L 1212 280.0485897992952 L 1213 278.9748892881339 L 1214 277.90987632635097 L 1215 276.85362612097236 L 1216 275.80621326023265 L 1217 274.76771170830784 L 1218 273.7381948000924 L 1219 272.71773523602064 L 1220 271.7064050769326 L 1221 270.7042757389863 L 1222 269.71141798861333 L 1223 268.7279019375225 L 1224 267.7537970377484 L 1225 266.7891720767474 L 1226 265.8340951725396 L 1227 264.888633768899 L 1228 263.9528546305909 L 1229 263.0268238386569 L 1230 262.1106067857489 L 1231 261.2042681715111 L 1232 260.30787199801114 L 1233 259.4214815652207 L 1234 258.54515946654533 L 1235 257.6789675844045 L 1236 256.8229670858617 L 1237 255.97721841830474 L 1238 255.14178130517777 L 1239 254.31671474176335 L 1240 253.50207699101662 L 1241 252.69792557945104 L 1242 251.90431729307605 L 1243 251.12130817338704 L 1244 250.34895351340788 L 1245 249.58730785378654 L 1246 248.83642497894343 L 1247 248.0963579132734 L 1248 247.3671589174015 L 1249 246.64887948449237 L 1250 245.9415703366141 L 1251 245.24528142115636 L 1252 244.56006190730344 L 1253 243.88596018256192 L 1254 243.22302384934395 L 1255 242.5712997216056 L 1256 241.9308338215411 L 1257 241.30167137633296 L 1258 240.6838568149581 L 1259 240.07743376505059 L 1260 239.4824450498207 L 1261 238.89893268503113 L 1262 238.3269378760296 L 1263 237.76650101483958 L 1264 237.21766167730755 L 1265 236.68045862030866 L 1266 236.15492977900956 L 1267 235.6411122641898 L 1268 235.13904235962104 L 1269 234.648755519505 L 1270 234.1702863659697 L 1271 233.7036686866246 L 1272 233.24893543217476 L 1273 232.80611871409377 L 1274 232.37524980235636 L 1275 231.95635912323024 L 1276 231.5494762571274 L 1277 231.15462993651522 L 1278 230.7718480438877 L 1279 230.4011576097964 L 1280 230.0425848109415 L 1281 229.69615496832367 L 1282 229.36189254545562 L 1283 229.03982114663478 L 1284 228.72996351527638 L 1285 228.43234153230748 L 1286 228.1469762146218 L 1287 227.87388771359548 L 1288 227.61309531366427 L 1289 227.36461743096157 L 1290 227.12847161201802 L 1291 226.90467453252245 L 1292 226.69324199614428 L 1293 226.4941889334175 L 1294 226.30752940068638 L 1295 226.13327657911287 L 1296 225.97144277374582 L 1297 225.82203941265192 L 1298 225.68507704610883 L 1299 225.56056534586014 L 1300 225.4485131044323 L 1301 225.34892823451383 L 1302 225.2618177683965 L 1303 225.18718785747882 L 1304 225.12504377183143 L 1305 225.07538989982532 L 1306 225.03822974782153 L 1307 225.01356593992384 L 1308 225.00140021779333 L 1309 225.0017334405255 L 1310 225.01456558458938 L 1311 225.0398957438295 L 1312 225.07772212952963 L 1313 225.12804207053924 L 1314 225.19085201346198 L 1315 225.2661475229068 L 1316 225.353923281801 L 1317 225.45417309176577 L 1318 225.56688987355386 L 1319 225.69206566754957 L 1320 225.8296916343307 L 1321 225.97975805529282 L 1322 226.14225433333564 L 1323 226.31716899361123 L 1324 226.5044896843343 L 1325 226.7042031776545 L 1326 226.9162953705906 L 1327 227.14075128602622 L 1328 227.37755507376752 L 1329 227.62669001166253 L 1330 227.88813850678196 L 1331 228.16188209666154 L 1332 228.44790145060577 L 1333 228.74617637105294 L 1334 229.05668579500153 L 1335 229.37940779549746 L 1336 229.71431958318252 L 1337 230.0613975079037 L 1338 230.42061706038325 L 1339 230.79195287394947 L 1340 231.1753787263278 L 1341 231.5708675414929 L 1342 231.97839139158035 L 1343 232.3979214988589 L 1344 232.8294282377627 L 1345 233.27288113698324 L 1346 233.72824888162117 L 1347 234.19549931539765 L 1348 234.67459944292503 L 1349 235.16551543203693 L 1350 235.6682126161773 L 1351 236.18265549684847 L 1352 236.7088077461178 L 1353 237.24663220918322 L 1354 237.79609090699674 L 1355 238.35714503894647 L 1356 238.92975498559667 L 1357 239.51388031148537 L 1358 240.10947976797976 L 1359 240.71651129618917 L 1360 241.3349320299349 L 1361 241.9646982987774 L 1362 242.60576563110004 L 1363 243.25808875724962 L 1364 243.92162161273293 L 1365 244.59631734146987 L 1366 245.28212829910214 L 1367 245.97900605635758 L 1368 246.6869014024703 L 1369 247.40576434865562 L 1370 248.13554413164 L 1371 248.8761892172459 L 1372 249.62764730403083 L 1373 250.38986532698064 L 1374 251.16278946125695 L 1375 251.94636512599774 L 1376 252.74053698817198 L 1377 253.5452489664867 L 1378 254.3604442353475 L 1379 255.18606522887117 L 1380 256.0220536449509 L 1381 256.8683504493732 L 1382 257.7248958799869 L 1383 258.59162945092294 L 1384 259.46848995686605 L 1385 260.3554154773766 L 1386 261.25234338126313 L 1387 262.1592103310053 L 1388 263.07595228722647 L 1389 264.00250451321585 L 1390 264.9388015794999 L 1391 265.884777368463 L 1392 266.8403650790161 L 1393 267.80549723131395 L 1394 268.7801056715205 L 1395 269.7641215766215 L 1396 270.7574754592846 L 1397 271.760097172766 L 1398 272.77191591586427 L 1399 273.7928602379203 L 1400 274.8228580438616 L 1401 275.861836599295 L 1402 276.90972253564183 L 1403 277.9664418553195 L 1404 279.0319199369663 L 1405 280.10608154071133 L 1406 281.18885081348765 L 1407 282.2801512943883 L 1408 283.3799059200663 L 1409 284.488037030176 L 1410 285.60446637285736 L 1411 286.7291151102619 L 1412 287.86190382411985 L 1413 289.00275252134816 L 1414 290.1515806396996 L 1415 291.3083070534516 L 1416 292.4728500791349 L 1417 293.64512748130204 L 1418 294.8250564783342 L 1419 296.012553748287 L 1420 297.20753543477457 L 1421 298.40991715289084 L 1422 299.6196139951686 L 1423 300.83654053757544 L 1424 302.0606108455459 L 1425 303.2917384800499 L 1426 304.5298365036968 L 1427 305.7748174868744 L 1428 307.026593513923 L 1429 308.28507618934367 L 1430 309.55017664404033 L 1431 310.8218055415953 L 1432 312.0998730845781 L 1433 313.3842890208863 L 1434 314.67496265011886 L 1435 315.9718028299813 L 1436 317.2747179827213 L 1437 318.58361610159625 L 1438 319.8984047573695 L 1439 321.2189911048383 L 1440 322.5452818893895 L 1441 323.8771834535851 L 1442 325.2146017437758 L 1443 326.557442316743 L 1444 327.9056103463677 L 1445 329.25901063032694 L 1446 330.61754759681645 L 1447 331.9811253112997 L 1448 333.34964748328235 L 1449 334.72301747311195 L 1450 336.1011382988022 L 1451 337.4839126428814 L 1452 338.87124285926484 L 1453 340.2630309801499 L 1454 341.65917872293426 L 1455 343.0595874971564 L 1456 344.4641584114574 L 1457 345.8727922805644 L 1458 347.28538963229494 L 1459 348.70185071458013 L 1460 350.1220755025106 L 1461 351.5459637053985 L 1462 352.97341477386 L 1463 354.4043279069158 L 1464 355.8386020591091 L 1465 357.2761359476414 L 1466 358.7168280595241 L 1467 360.16057665874763 L 1468 361.607279793465 L 1469 363.0568353031918 L 1470 364.5091408260199 L 1471 365.96409380584623 L 1472 367.4215914996147 L 1473 368.8815309845713 L 1474 370.34380916553283 L 1475 371.808322782166 L 1476 373.2749684162802 L 1477 374.74364249913015 L 1478 376.21424131872925 L 1479 377.6866610271738 L 1480 379.1607976479759 L 1481 380.6365470834063 L 1482 382.1138051218449 L 1483 383.5924674451401 L 1484 385.07242963597514 L 1485 386.5535871852418 L 1486 388.0358354994204 L 1487 389.51906990796556 L 1488 391.00318567069803 L 1489 392.48807798520056 L 1490 393.97364199421907 L 1491 395.45977279306686 L 1492 396.94636543703297 L 1493 398.43331494879254 L 1494 399.92051632582024 L 1495 401.40786454780505 L 1496 402.89525458406627 L 1497 404.3825814009703 L 1498 405.8697399693482 L 1499 407.35662527191164 L 1500 408.8431323106696 L 1501 410.3291561143424 L 1502 411.8145917457746 L 1503 413.299334309345 L 1504 414.78327895837435 L 1505 416.2663209025289 L 1506 417.74835541522026 L 1507 419.229277841001 L 1508 420.7089836029549 L 1509 422.18736821008173 L 1510 423.664327264676 L 1511 425.13975646969914 L 1512 426.61355163614456 L 1513 428.08560869039496 L 1514 429.5558236815719 L 1515 431.02409278887586 L 1516 432.49031232891826 L 1517 433.9543787630429 L 1518 435.4161887046374 L 1519 436.8756389264337 L 1520 438.3326263677981 L 1521 439.787048142009 L 1522 441.23880154352184 L 1523 442.6877840552222 L 1524 444.1338933556649 L 1525 445.57702732629957 L 1526 447.0170840586821 L 1527 448.4539618616707 L 1528 449.8875592686072 L 1529 451.31777504448195 L 1530 452.7445081930829 L 1531 454.1676579641274 L 1532 455.5871238603768 L 1533 457.00280564473314 L 1534 458.4146033473177 L 1535 459.82241727253034 L 1536 461.2261480060895 L 1537 462.6256964220525 L 1538 464.02096368981563 L 1539 465.41185128109294" stroke-linecap="round" stroke-linejoin="round" stroke-miterlimit="10" stroke-width="30"/></g></svg>